<svg width="288" height="63" viewBox="0 0 288 63" fill="none" xmlns="http://www.w3.org/2000/svg">
<g clip-path="url(#clip0_9_7254)">
<path d="M287.313 28.1336V23.0289H281.046V15.093L280.835 15.1587L274.947 16.9804L274.831 17.0161V23.0291H265.539V19.6794C265.539 18.1196 265.884 16.926 266.564 16.1299C267.239 15.3435 268.204 14.9436 269.435 14.9436C270.32 14.9436 271.237 15.1545 272.159 15.5703L272.39 15.6748V10.2988L272.282 10.2584C271.421 9.94561 270.251 9.78809 268.8 9.78809C266.972 9.78809 265.311 10.1905 263.863 10.9879C262.413 11.7864 261.273 12.9264 260.474 14.3759C259.678 15.8236 259.274 17.4957 259.274 19.3461V23.0289H254.91V28.1336H259.274V49.6387H265.539V28.1336H274.831V41.7997C274.831 47.4281 277.456 50.2803 282.633 50.2803C283.484 50.2803 284.379 50.1795 285.294 49.9821C286.224 49.7794 286.858 49.577 287.231 49.3608L287.314 49.3113V44.1595L287.059 44.3299C286.719 44.559 286.295 44.7463 285.799 44.8856C285.3 45.0274 284.884 45.0984 284.561 45.0984C283.349 45.0984 282.451 44.7679 281.895 44.1157C281.332 43.4575 281.046 42.3066 281.046 40.6965V28.1336H287.313ZM240.918 45.0993C238.644 45.0993 236.851 44.3366 235.588 42.8344C234.316 41.3246 233.672 39.1721 233.672 36.4373C233.672 33.6156 234.316 31.4073 235.588 29.8708C236.853 28.3444 238.628 27.5697 240.867 27.5697C243.04 27.5697 244.769 28.3096 246.008 29.77C247.253 31.2379 247.885 33.4286 247.885 36.2831C247.885 39.1727 247.29 41.3923 246.119 42.8771C244.955 44.3507 243.206 45.0993 240.918 45.0993ZM241.197 22.3878C236.858 22.3878 233.412 23.6735 230.955 26.2093C228.5 28.7454 227.255 32.255 227.255 36.6414C227.255 40.8077 228.47 44.1589 230.867 46.6003C233.264 49.0426 236.526 50.2798 240.562 50.2798C244.768 50.2798 248.145 48.9761 250.601 46.4052C253.057 43.8371 254.301 40.3607 254.301 36.0767C254.301 31.8453 253.133 28.4691 250.83 26.044C248.525 23.6177 245.284 22.3878 241.197 22.3878ZM217.153 22.3878C214.202 22.3878 211.761 23.1513 209.896 24.6566C208.02 26.1709 207.068 28.1569 207.068 30.5601C207.068 31.8093 207.274 32.919 207.678 33.8602C208.084 34.8045 208.714 35.6359 209.55 36.3337C210.38 37.0258 211.661 37.7508 213.358 38.4884C214.785 39.0823 215.85 39.5846 216.526 39.9805C217.186 40.3686 217.655 40.7586 217.92 41.1385C218.177 41.5102 218.308 42.019 218.308 42.6469C218.308 44.4346 216.984 45.3045 214.26 45.3045C213.25 45.3045 212.098 45.0911 210.835 44.6705C209.582 44.2562 208.399 43.6496 207.328 42.8718L207.068 42.6831V48.7837L207.163 48.8287C208.049 49.2425 209.167 49.5916 210.485 49.8662C211.799 50.1411 212.994 50.2809 214.032 50.2809C217.234 50.2809 219.813 49.5138 221.695 47.9995C223.589 46.4748 224.549 44.4419 224.549 41.9556C224.549 40.1619 224.032 38.6238 223.014 37.3832C222.002 36.1528 220.247 35.0232 217.798 34.0248C215.848 33.2329 214.598 32.5756 214.082 32.071C213.585 31.5836 213.333 30.8943 213.333 30.0213C213.333 29.2474 213.645 28.6275 214.284 28.1254C214.928 27.6208 215.825 27.3642 216.95 27.3642C217.994 27.3642 219.062 27.531 220.124 27.8578C221.186 28.1847 222.118 28.6224 222.896 29.1579L223.152 29.3348V23.5478L223.054 23.5051C222.336 23.1937 221.389 22.9272 220.239 22.711C219.095 22.4962 218.056 22.3878 217.153 22.3878ZM190.735 45.0993C188.461 45.0993 186.668 44.3366 185.405 42.8344C184.133 41.3246 183.49 39.1727 183.49 36.4373C183.49 33.6156 184.134 31.4073 185.406 29.8708C186.669 28.3444 188.445 27.5697 190.685 27.5697C192.856 27.5697 194.585 28.3096 195.825 29.77C197.07 31.2379 197.701 33.4286 197.701 36.2831C197.701 39.1727 197.107 41.3923 195.935 42.8771C194.772 44.3507 193.023 45.0993 190.735 45.0993ZM191.014 22.3878C186.674 22.3878 183.228 23.6735 180.773 26.2093C178.317 28.7454 177.071 32.255 177.071 36.6414C177.071 40.8094 178.287 44.1589 180.685 46.6003C183.082 49.0426 186.343 50.2798 190.379 50.2798C194.584 50.2798 197.963 48.9761 200.419 46.4052C202.874 43.8371 204.118 40.3607 204.118 36.0767C204.118 31.8453 202.951 28.4691 200.646 26.044C198.341 23.6177 195.1 22.3878 191.014 22.3878ZM167.561 27.6371V23.0289H161.372V49.6382H167.561V36.0265C167.561 33.712 168.08 31.8105 169.104 30.3742C170.115 28.9551 171.462 28.2361 173.106 28.2361C173.664 28.2361 174.29 28.329 174.967 28.5129C175.638 28.6957 176.124 28.8942 176.41 29.1031L176.671 29.2938V22.9834L176.57 22.9399C175.994 22.6922 175.179 22.5673 174.147 22.5673C172.592 22.5673 171.2 23.0727 170.008 24.0678C168.961 24.9424 168.205 26.1417 167.627 27.6371H167.561ZM150.289 22.3878C147.449 22.3878 144.917 23.0036 142.763 24.2174C140.604 25.4341 138.935 27.171 137.799 29.3797C136.668 31.583 136.094 34.1567 136.094 37.0269C136.094 39.5411 136.651 41.8483 137.751 43.8818C138.852 45.9186 140.41 47.5121 142.382 48.6172C144.351 49.721 146.628 50.2806 149.148 50.2806C152.089 50.2806 154.601 49.6859 156.614 48.5131L156.695 48.4659V42.7314L156.435 42.9234C155.523 43.5954 154.504 44.1317 153.407 44.518C152.313 44.9041 151.316 45.0993 150.442 45.0993C148.013 45.0993 146.064 44.3307 144.649 42.8156C143.23 41.2985 142.511 39.1682 142.511 36.4875C142.511 33.79 143.261 31.6049 144.739 29.9927C146.212 28.3852 148.166 27.5697 150.544 27.5697C152.578 27.5697 154.56 28.2664 156.436 29.6422L156.695 29.8329V23.7906L156.611 23.7429C155.906 23.3433 154.943 23.0134 153.748 22.7632C152.558 22.5136 151.394 22.3878 150.289 22.3878ZM131.831 23.0291H125.642V49.6382H131.831V23.0291ZM128.8 11.6935C127.782 11.6935 126.893 12.0442 126.163 12.7392C125.43 13.4361 125.059 14.3135 125.059 15.3491C125.059 16.3683 125.426 17.2298 126.152 17.9082C126.873 18.5846 127.764 18.9274 128.801 18.9274C129.836 18.9274 130.731 18.5846 131.461 17.9093C132.195 17.2298 132.568 16.3686 132.568 15.3491C132.568 14.3497 132.205 13.4813 131.491 12.7672C130.777 12.0546 129.872 11.6935 128.8 11.6935ZM113.358 21.0659V49.6382H119.675V12.5081H110.933L99.8214 40.0872L89.0385 12.5081H79.9408V49.6379H85.8763V21.0631H86.0801L97.4665 49.6382H101.946L113.155 21.0659H113.358Z" fill="#706D6E"/>
<path d="M29.4285 29.5466H0.313843V0.101074H29.4285V29.5466Z" fill="#F1511B"/>
<path d="M61.5743 29.5459H32.4602V0.100342H61.5743V29.5459Z" fill="#80CC28"/>
<path d="M29.4276 62.0686H0.313843V32.6233H29.4276V62.0686Z" fill="tomato"/>
<path d="M61.5743 62.0686H32.4602V32.6233H61.5743V62.0686Z" fill="#FBBC09"/>
</g>
<defs>
<clipPath id="clip0_9_7254">
<rect width="287" height="62" fill="white" transform="translate(0.313843 0.0844727)"/>
</clipPath>
</defs>
</svg>
