<svg width="75" height="60" viewBox="0 0 75 60" fill="none" xmlns="http://www.w3.org/2000/svg">
<g clip-path="url(#clip0_107_72545)">
<path d="M-0.000549316 5.52905V19.1492C-0.000549316 23.2975 5.05407 25.5099 8.14301 22.6061L22.8856 8.98594C26.115 6.01301 24.0089 0.758545 19.5861 0.758545H4.84346C2.17575 0.758545 -0.000549316 2.90182 -0.000549316 5.52905Z" fill="white"/>
<path d="M69.7802 0.758545H55.0375C50.6849 0.758545 48.5086 6.01301 51.738 8.98594L66.4806 22.6061C69.5695 25.4407 74.6242 23.2975 74.6242 19.1492V5.52905C74.6242 2.90182 72.4479 0.758545 69.7802 0.758545Z" fill="white"/>
<path d="M40.647 34.0137L66.4817 57.9354C69.5707 60.7701 74.6253 58.6268 74.6253 54.4785V40.7201C74.6253 39.4065 74.0637 38.162 73.0808 37.2632L40.647 7.1883C38.7515 5.45986 35.8732 5.45986 33.9777 7.1883L1.54392 37.2632C0.561075 38.162 -0.000549316 39.4065 -0.000549316 40.7201V54.4785C-0.000549316 58.6268 5.05407 60.8392 8.14301 57.9354L33.9777 34.0137C35.8732 32.2853 38.7515 32.2853 40.647 34.0137Z" fill="white"/>
</g>
<defs>
<clipPath id="clip0_107_72545">
<rect width="74.6259" height="58.4905" fill="white" transform="translate(-0.000183105 0.758301)"/>
</clipPath>
</defs>
</svg>
